<?xml version="1.0" encoding="UTF-8"?>
<svg width="20px" height="20px" viewBox="0 0 20 20" version="1.1" xmlns="http://www.w3.org/2000/svg" xmlns:xlink="http://www.w3.org/1999/xlink">
    <title>Android</title>
    <g id="页面-1" stroke="none" stroke-width="1" fill="none" fill-rule="evenodd">
        <g id="背词" transform="translate(-1030.000000, -696.000000)" fill-rule="nonzero">
            <g id="编组-8" transform="translate(1020.000000, 686.000000)">
                <g id="安卓" transform="translate(10.000000, 10.000000)">
                    <rect id="矩形" fill="#000000" opacity="0" x="0" y="0" width="20" height="20"></rect>
                    <path d="M5.6674175,14.3343013 C5.6674175,14.731572 5.99235719,15.0566116 6.38950793,15.0566116 L7.11159836,15.0566116 L7.11159836,17.5846776 C7.11159836,18.1841911 7.59541033,18.668143 8.19474398,18.668143 C8.79407764,18.668143 9.27788961,18.1841911 9.27788961,17.5846776 L9.27788959,15.0565916 L10.7220904,15.0565916 L10.7220904,17.5846576 C10.7220904,18.1841712 11.2059024,18.668143 11.8052361,18.668143 C12.4045697,18.668143 12.8883817,18.1841712 12.8883817,17.5846576 L12.8883817,15.0565916 L13.6104721,15.0565916 C14.0076228,15.0565916 14.3325625,14.731552 14.3325625,14.3342814 L14.3325625,7.11121859 L5.6674175,7.11121859 L5.6674175,14.3343013 Z M3.86218145,7.11121859 C3.26284779,7.11121859 2.77903582,7.59517047 2.77903582,8.194684 L2.77903582,13.2508359 C2.77903582,13.8503495 3.26284779,14.3343013 3.86218145,14.3343013 C4.4615151,14.3343013 4.94532707,13.8503495 4.94532707,13.2508359 L4.94532707,8.194684 C4.94532707,7.59517047 4.4615151,7.11121859 3.86218145,7.11121859 Z M16.1378186,7.11121859 C15.5384849,7.11121859 15.0546729,7.59517047 15.0546729,8.194684 L15.0546729,13.2508359 C15.0546729,13.8503495 15.5384849,14.3343013 16.1378186,14.3343013 C16.7371522,14.3343013 17.2209642,13.8503495 17.2209642,13.2508359 L17.2209642,8.194684 C17.2209642,7.59517047 16.7371522,7.11121859 16.1378186,7.11121859 Z M12.5489918,2.89293859 L13.4913329,1.95033768 C13.6321374,1.80949316 13.6321374,1.58196742 13.4913329,1.44110293 C13.3505283,1.30025842 13.1230626,1.30025842 12.982258,1.44110293 L11.9135626,2.50650059 C11.3358943,2.22119402 10.6896124,2.05506666 10,2.05506666 C9.30679,2.05506666 8.65689063,2.22119402 8.07560475,2.51011814 L7.00329178,1.43748539 C6.86248725,1.29664088 6.63502146,1.29664088 6.49421693,1.43748539 C6.3534124,1.5783299 6.3534124,1.80585564 6.49421693,1.94672014 L7.44015559,2.89293859 C6.36784262,3.68386234 5.6674175,4.95512043 5.6674175,6.38890832 L14.3325825,6.38890832 C14.3325825,4.95152287 13.6285398,3.68026479 12.5489918,2.89293859 Z M8.55579916,4.94428777 L7.83370873,4.94428777 L7.83370873,4.2219775 L8.55579916,4.2219775 L8.55579916,4.94428777 Z M12.1662913,4.94428777 L11.4442008,4.94428777 L11.4442008,4.2219775 L12.1662913,4.2219775 L12.1662913,4.94428777 Z" id="形状" fill="#032352"></path>
                </g>
            </g>
        </g>
    </g>
</svg>