<?xml version="1.0" encoding="UTF-8"?>
<svg width="20px" height="20px" viewBox="0 0 20 20" version="1.1" xmlns="http://www.w3.org/2000/svg" xmlns:xlink="http://www.w3.org/1999/xlink">
    <title>Apple</title>
    <g id="页面-1" stroke="none" stroke-width="1" fill="none" fill-rule="evenodd">
        <g id="背词" transform="translate(-857.000000, -696.000000)" fill-rule="nonzero">
            <g id="编组-9" transform="translate(830.000000, 686.000000)">
                <g id="apple-fill" transform="translate(27.000000, 10.000000)">
                    <rect id="矩形" fill="#000000" opacity="0" x="0" y="0" width="20" height="20"></rect>
                    <path d="M14.5976563,10.4628906 C14.5898438,9.13085938 15.1933594,8.12695313 16.4121094,7.38671875 C15.7304688,6.41015625 14.6992188,5.87304688 13.3398438,5.76953125 C12.0527344,5.66796875 10.6445312,6.51953125 10.1289063,6.51953125 C9.58398438,6.51953125 8.33789063,5.8046875 7.35742188,5.8046875 C5.33398438,5.8359375 3.18359375,7.41796875 3.18359375,10.6367188 C3.18359375,11.5878906 3.35742188,12.5703125 3.70507812,13.5820313 C4.16992188,14.9140625 5.84570312,18.1777344 7.59375,18.125 C8.5078125,18.1035156 9.15429688,17.4765625 10.34375,17.4765625 C11.4980469,17.4765625 12.0957031,18.125 13.1152344,18.125 C14.8789062,18.0996094 16.3945312,15.1328125 16.8359375,13.796875 C14.4707031,12.6816406 14.5976562,10.53125 14.5976563,10.4628906 Z M12.5449219,4.50585938 C13.5351562,3.33007812 13.4453125,2.25976562 13.4160156,1.875 C12.5410156,1.92578125 11.5292969,2.47070312 10.953125,3.140625 C10.3183594,3.859375 9.9453125,4.74804688 10.0253906,5.75 C10.9707031,5.82226562 11.8339844,5.3359375 12.5449219,4.50585938 Z" id="形状" fill="#032352"></path>
                </g>
            </g>
        </g>
    </g>
</svg>